<mxfile host="Electron" agent="Mozilla/5.0 (Windows NT 10.0; Win64; x64) AppleWebKit/537.36 (KHTML, like Gecko) draw.io/24.7.17 Chrome/128.0.6613.36 Electron/32.0.1 Safari/537.36" version="24.7.17">
  <diagram name="Trang-1" id="pzR_o0KPVWsqZezDxyqA">
    <mxGraphModel dx="2074" dy="2365" grid="1" gridSize="10" guides="1" tooltips="1" connect="1" arrows="1" fold="1" page="1" pageScale="1" pageWidth="827" pageHeight="1169" math="0" shadow="0">
      <root>
        <mxCell id="0" />
        <mxCell id="1" parent="0" />
        <mxCell id="EJ2Dx89F38Hmr1vXrXIO-6" value="" style="edgeStyle=orthogonalEdgeStyle;rounded=0;orthogonalLoop=1;jettySize=auto;html=1;" parent="1" source="EJ2Dx89F38Hmr1vXrXIO-2" target="EJ2Dx89F38Hmr1vXrXIO-3" edge="1">
          <mxGeometry relative="1" as="geometry" />
        </mxCell>
        <mxCell id="EJ2Dx89F38Hmr1vXrXIO-2" value="Nhập a,b" style="shape=parallelogram;perimeter=parallelogramPerimeter;whiteSpace=wrap;html=1;fixedSize=1;" parent="1" vertex="1">
          <mxGeometry x="289" y="140" width="120" height="60" as="geometry" />
        </mxCell>
        <mxCell id="xATt3aM-Heo4Nkjg-Icx-2" value="" style="edgeStyle=orthogonalEdgeStyle;rounded=0;orthogonalLoop=1;jettySize=auto;html=1;" parent="1" source="EJ2Dx89F38Hmr1vXrXIO-3" target="xATt3aM-Heo4Nkjg-Icx-1" edge="1">
          <mxGeometry relative="1" as="geometry" />
        </mxCell>
        <mxCell id="xATt3aM-Heo4Nkjg-Icx-4" value="" style="edgeStyle=orthogonalEdgeStyle;rounded=0;orthogonalLoop=1;jettySize=auto;html=1;" parent="1" source="EJ2Dx89F38Hmr1vXrXIO-3" target="xATt3aM-Heo4Nkjg-Icx-3" edge="1">
          <mxGeometry relative="1" as="geometry" />
        </mxCell>
        <mxCell id="EJ2Dx89F38Hmr1vXrXIO-3" value="Kiểm tra điều kiện a = 0" style="rhombus;whiteSpace=wrap;html=1;" parent="1" vertex="1">
          <mxGeometry x="301" y="240" width="98" height="100" as="geometry" />
        </mxCell>
        <mxCell id="EJ2Dx89F38Hmr1vXrXIO-14" style="edgeStyle=orthogonalEdgeStyle;rounded=0;orthogonalLoop=1;jettySize=auto;html=1;entryX=0.5;entryY=0;entryDx=0;entryDy=0;exitX=0.7;exitY=0.7;exitDx=0;exitDy=0;exitPerimeter=0;" parent="1" source="xATt3aM-Heo4Nkjg-Icx-1" target="EJ2Dx89F38Hmr1vXrXIO-13" edge="1">
          <mxGeometry relative="1" as="geometry">
            <mxPoint x="509" y="370" as="sourcePoint" />
          </mxGeometry>
        </mxCell>
        <mxCell id="EJ2Dx89F38Hmr1vXrXIO-16" style="edgeStyle=orthogonalEdgeStyle;rounded=0;orthogonalLoop=1;jettySize=auto;html=1;entryX=1.05;entryY=0.6;entryDx=0;entryDy=0;entryPerimeter=0;" parent="1" source="EJ2Dx89F38Hmr1vXrXIO-13" target="xATt3aM-Heo4Nkjg-Icx-8" edge="1">
          <mxGeometry relative="1" as="geometry">
            <mxPoint x="409" y="490" as="targetPoint" />
          </mxGeometry>
        </mxCell>
        <mxCell id="EJ2Dx89F38Hmr1vXrXIO-20" style="edgeStyle=orthogonalEdgeStyle;rounded=0;orthogonalLoop=1;jettySize=auto;html=1;exitDx=0;exitDy=0;entryX=0.5;entryY=0;entryDx=0;entryDy=0;entryPerimeter=0;" parent="1" source="xATt3aM-Heo4Nkjg-Icx-6" target="EJ2Dx89F38Hmr1vXrXIO-29" edge="1">
          <mxGeometry relative="1" as="geometry">
            <mxPoint x="619" y="600" as="targetPoint" />
            <Array as="points" />
          </mxGeometry>
        </mxCell>
        <mxCell id="EJ2Dx89F38Hmr1vXrXIO-13" value="Kiểm tra b= 0" style="rhombus;whiteSpace=wrap;html=1;" parent="1" vertex="1">
          <mxGeometry x="469" y="420" width="80" height="80" as="geometry" />
        </mxCell>
        <mxCell id="EJ2Dx89F38Hmr1vXrXIO-38" style="edgeStyle=orthogonalEdgeStyle;rounded=0;orthogonalLoop=1;jettySize=auto;html=1;exitX=0.5;exitY=1;exitDx=0;exitDy=0;entryX=0;entryY=0.5;entryDx=0;entryDy=0;" parent="1" source="EJ2Dx89F38Hmr1vXrXIO-25" target="EJ2Dx89F38Hmr1vXrXIO-34" edge="1">
          <mxGeometry relative="1" as="geometry" />
        </mxCell>
        <mxCell id="EJ2Dx89F38Hmr1vXrXIO-25" value="Phương trình vô số nghiệm" style="shape=parallelogram;perimeter=parallelogramPerimeter;whiteSpace=wrap;html=1;fixedSize=1;" parent="1" vertex="1">
          <mxGeometry x="340" y="610" width="140" height="60" as="geometry" />
        </mxCell>
        <mxCell id="EJ2Dx89F38Hmr1vXrXIO-36" style="edgeStyle=orthogonalEdgeStyle;rounded=0;orthogonalLoop=1;jettySize=auto;html=1;entryX=1;entryY=0.5;entryDx=0;entryDy=0;" parent="1" source="EJ2Dx89F38Hmr1vXrXIO-29" edge="1" target="EJ2Dx89F38Hmr1vXrXIO-34">
          <mxGeometry relative="1" as="geometry">
            <mxPoint x="619" y="1010" as="targetPoint" />
          </mxGeometry>
        </mxCell>
        <mxCell id="EJ2Dx89F38Hmr1vXrXIO-29" value="Phương trình vô nghiệm" style="shape=parallelogram;perimeter=parallelogramPerimeter;whiteSpace=wrap;html=1;fixedSize=1;" parent="1" vertex="1">
          <mxGeometry x="559" y="610" width="120" height="60" as="geometry" />
        </mxCell>
        <mxCell id="EJ2Dx89F38Hmr1vXrXIO-33" value="" style="edgeStyle=orthogonalEdgeStyle;rounded=0;orthogonalLoop=1;jettySize=auto;html=1;" parent="1" source="EJ2Dx89F38Hmr1vXrXIO-32" target="EJ2Dx89F38Hmr1vXrXIO-2" edge="1">
          <mxGeometry relative="1" as="geometry" />
        </mxCell>
        <mxCell id="EJ2Dx89F38Hmr1vXrXIO-32" value="Sơ đồ" style="ellipse;whiteSpace=wrap;html=1;" parent="1" vertex="1">
          <mxGeometry x="289" y="-10" width="120" height="80" as="geometry" />
        </mxCell>
        <mxCell id="EJ2Dx89F38Hmr1vXrXIO-34" value="End" style="ellipse;whiteSpace=wrap;html=1;" parent="1" vertex="1">
          <mxGeometry x="460" y="1000" width="120" height="80" as="geometry" />
        </mxCell>
        <mxCell id="xATt3aM-Heo4Nkjg-Icx-1" value="Đúng" style="shape=waypoint;sketch=0;size=6;pointerEvents=1;points=[];fillColor=default;resizable=0;rotatable=0;perimeter=centerPerimeter;snapToPoint=1;labelBackgroundColor=default;" parent="1" vertex="1">
          <mxGeometry x="499" y="280" width="20" height="20" as="geometry" />
        </mxCell>
        <mxCell id="xATt3aM-Heo4Nkjg-Icx-5" value="" style="edgeStyle=orthogonalEdgeStyle;rounded=0;orthogonalLoop=1;jettySize=auto;html=1;" parent="1" target="xATt3aM-Heo4Nkjg-Icx-3" edge="1">
          <mxGeometry relative="1" as="geometry">
            <mxPoint x="189" y="420" as="targetPoint" />
            <mxPoint x="190" y="290" as="sourcePoint" />
          </mxGeometry>
        </mxCell>
        <mxCell id="UvVcAm_q0qWDUFbmTBe9-2" style="edgeStyle=orthogonalEdgeStyle;rounded=0;orthogonalLoop=1;jettySize=auto;html=1;" edge="1" parent="1" source="xATt3aM-Heo4Nkjg-Icx-3" target="UvVcAm_q0qWDUFbmTBe9-1">
          <mxGeometry relative="1" as="geometry" />
        </mxCell>
        <mxCell id="xATt3aM-Heo4Nkjg-Icx-3" value="Sai" style="shape=waypoint;sketch=0;size=6;pointerEvents=1;points=[];fillColor=default;resizable=0;rotatable=0;perimeter=centerPerimeter;snapToPoint=1;labelBackgroundColor=default;" parent="1" vertex="1">
          <mxGeometry x="179" y="280" width="20" height="20" as="geometry" />
        </mxCell>
        <mxCell id="xATt3aM-Heo4Nkjg-Icx-7" value="" style="edgeStyle=orthogonalEdgeStyle;rounded=0;orthogonalLoop=1;jettySize=auto;html=1;exitX=1;exitY=0.5;exitDx=0;exitDy=0;entryDx=0;entryDy=0;" parent="1" source="EJ2Dx89F38Hmr1vXrXIO-13" target="xATt3aM-Heo4Nkjg-Icx-6" edge="1">
          <mxGeometry relative="1" as="geometry">
            <mxPoint x="549" y="460" as="sourcePoint" />
            <mxPoint x="619" y="490" as="targetPoint" />
          </mxGeometry>
        </mxCell>
        <mxCell id="xATt3aM-Heo4Nkjg-Icx-6" value="Sai" style="shape=waypoint;sketch=0;size=6;pointerEvents=1;points=[];fillColor=default;resizable=0;rotatable=0;perimeter=centerPerimeter;snapToPoint=1;labelBackgroundColor=default;" parent="1" vertex="1">
          <mxGeometry x="609" y="450" width="20" height="20" as="geometry" />
        </mxCell>
        <mxCell id="UvVcAm_q0qWDUFbmTBe9-7" style="edgeStyle=orthogonalEdgeStyle;rounded=0;orthogonalLoop=1;jettySize=auto;html=1;" edge="1" parent="1" source="xATt3aM-Heo4Nkjg-Icx-8" target="EJ2Dx89F38Hmr1vXrXIO-25">
          <mxGeometry relative="1" as="geometry" />
        </mxCell>
        <mxCell id="xATt3aM-Heo4Nkjg-Icx-8" value="Đúng" style="shape=waypoint;sketch=0;size=6;pointerEvents=1;points=[];fillColor=default;resizable=0;rotatable=0;perimeter=centerPerimeter;snapToPoint=1;labelBackgroundColor=default;" parent="1" vertex="1">
          <mxGeometry x="400" y="450" width="20" height="20" as="geometry" />
        </mxCell>
        <mxCell id="UvVcAm_q0qWDUFbmTBe9-3" style="edgeStyle=orthogonalEdgeStyle;rounded=0;orthogonalLoop=1;jettySize=auto;html=1;entryX=0;entryY=0.5;entryDx=0;entryDy=0;" edge="1" parent="1" source="UvVcAm_q0qWDUFbmTBe9-1" target="EJ2Dx89F38Hmr1vXrXIO-34">
          <mxGeometry relative="1" as="geometry">
            <Array as="points">
              <mxPoint x="190" y="1040" />
            </Array>
          </mxGeometry>
        </mxCell>
        <mxCell id="UvVcAm_q0qWDUFbmTBe9-1" value="x = -b/a" style="shape=parallelogram;perimeter=parallelogramPerimeter;whiteSpace=wrap;html=1;fixedSize=1;" vertex="1" parent="1">
          <mxGeometry x="129" y="460" width="120" height="60" as="geometry" />
        </mxCell>
      </root>
    </mxGraphModel>
  </diagram>
</mxfile>
